<svg width="64" height="64" viewBox="0 0 64 64" fill="none" xmlns="http://www.w3.org/2000/svg">
  <rect width="64" height="64" rx="18" fill="#111827"/>
  <path d="M21 36.5C21 28.492 27.492 22 35.5 22H43V27.6H35.5C30.585 27.6 26.6 31.585 26.6 36.5C26.6 41.415 30.585 45.4 35.5 45.4H42.8V51H35.5C27.492 51 21 44.508 21 36.5Z" fill="#F8FAFC"/>
  <path d="M34 33H48V38.6H39.6V42.5H34V33Z" fill="#10B981"/>
  <path d="M18 16H38C42.418 16 46 19.582 46 24V27.6H40.4V24C40.4 22.675 39.325 21.6 38 21.6H18V16Z" fill="#A3E635"/>
</svg>
